<?xml version="1.0" encoding="UTF-8"?>
<svg id="Livello_2" data-name="Livello 2" xmlns="http://www.w3.org/2000/svg" viewBox="0 0 322.57 319.74">
  <defs>
    <style>
      .cls-1 {
        fill: #1d1d1b;
      }
    </style>
  </defs>
  <g id="Livello_1-2" data-name="Livello 1">
    <g>
      <path class="cls-1" d="m317.39,97.91c-6.59-16.53-17.5-29.34-32.99-38.2-10.25-5.86-21.31-9.1-33.06-9.7-11.85-.61-23.1,1.88-33.75,7.24-12.74,6.41-22.51,15.88-29.25,28.36-5.25,9.72-8.13,20.13-8.05,31.29.09,11.8,0,23.61,0,35.41,0,1.65.09,3.32.34,4.95.6,3.9,3.96,6.72,8.01,6.83,4.7.14,8.32-2.29,9.12-6.36.41-2.1.56-4.28.57-6.43.06-11.6.1-23.21.02-34.81-.07-9.82,2.65-18.88,8.33-26.72,10.5-14.52,24.67-22.38,42.96-21.6,12.97.55,24.57,5.24,34.28,13.99,14.65,13.21,21.56,33.17,18.47,52.65-2.48,15.64-10.79,28.09-24.14,37.32-8.92,6.17-19.08,9.27-29.84,9.67-10.63.4-21.29.09-31.94.09,0,.05,0,.09,0,.14-8.29,0-16.57.03-24.86-.01-6.41-.03-12.76.42-18.91,2.35-14.71,4.64-26.07,13.52-33.68,27.01-4.22,7.48-7.01,15.49-7.18,24.14-.21,10.84-.14,21.68,0,32.52.04,2.9.41,5.81,1.25,8.59,2.05,6.78,6.1,12.24,11.63,16.68,2,1.6,4.14,2.92,6.37,3.96-17.01.75-33.68,1.61-49.21,2.54.01-.01.03-.02.04-.04,2.58-3.74,3.9-7.88,4.57-12.23.94-6.52-.94-13.03-.62-19.61.1-10.75.82-21.52.68-32.28.02-.65-.95-.78-1.13-.17-3.22,10.43-6.49,20.89-8.32,31.66-.77,5.4-2.38,11.14-2.28,16.63.4,5.8,2.31,11.51,6.03,16.11-10.54.63-20.55,1.29-29.75,1.95,1.29-2.53,2.01-5.03,2.55-7.51,1.81-7.7-.15-15.49.28-23.29.31-10.45,1.31-21.06,1.56-31.58.03-.52-.75-.61-.87-.14-2.84,10.29-5.8,20.52-7.44,31.09-.82,6.29-2.79,13.88-1.47,20.19.8,3.96,1.77,7.8,4.07,11.33-10.34.75-19.62,1.5-27.49,2.23.38-1.04.67-2.08.91-3.11,2.18-8.31.45-16.78,1.02-25.22.53-9.64,1.81-19.36,2.49-29.03.04-.37-.51-.43-.6-.1-1.27,4.72-2.39,9.47-3.59,14.2-1.19,4.74-2.22,9.6-2.92,14.46-.65,4.93-1.6,9.85-1.54,14.87.33,4.72,1.13,9.74,3.25,14.02-2.29.21-4.47.43-6.5.63-9.38.96-20.51,3.22-20.51-6.62l6.36-48.55c.08-.61-.74-.87-1.03-.33-7.11,13.39-37.23,73.38-5.04,70.25,100.2-9.74,264.48-25.05,264.48-25.05,0,0-15.9-1.24-97.93,1.52-.17,0-.33.01-.5.02,2.09-1.17,4.07-2.58,5.88-4.23,7.1-6.47,11.21-14.45,11.24-24.26.01-4.57.13-9.14.13-13.71,0-9.19-.03-18.37-.1-27.56-.02-2.28-.44-4.51-2.03-6.32-2.66-3.02-6.6-3.86-10.74-2.33-3.06,1.13-4.99,4.29-4.99,8.2,0,12.56,0,25.11-.03,37.67,0,4.05-.35,8.03-2.85,11.49-3.14,4.35-7.28,6.96-12.72,6.74-8.52-.34-15.12-7.59-15.17-16.11-.05-9.14-.03-18.28,0-27.41.04-9.42,3.24-17.72,9.38-24.81,6.97-8.04,15.76-12.84,26.47-13.56,5.7-.38,11.44-.27,17.16-.3,16.42-.1,32.84-.03,49.26-.31,8.75-.15,17.14-2.32,25.2-5.84,11.48-5.02,21.28-12.18,29.15-21.98,9.74-12.13,15.48-25.89,16.53-41.41.74-11.04-.88-21.83-5.01-32.16Z"/>
      <path class="cls-1" d="m9.12,215.9l9.01.99-.18.08.22-.08.42.05c.2.02.39,0,.58-.07,3.61-1.37,42.74-15.64,106.57-13.96.49.01.57-.7.08-.77-15.48-2.31-58.64-7.18-96.16,3.37.8-1.87,1.65-3.71,2.57-5.52,1.12-2.16,2.29-4.29,3.56-6.36,1.25-2.08,2.6-4.1,3.95-6.1,1.37-1.99,2.79-3.95,4.26-5.86,1.48-1.9,2.99-3.79,4.57-5.61,1.55-1.84,3.19-3.61,4.81-5.39,1.65-1.75,3.31-3.48,5.04-5.16,1.69-1.71,3.49-3.3,5.23-4.94,1.81-1.57,3.57-3.2,5.44-4.7l2.75-2.31,2.82-2.23c1.86-1.51,3.8-2.9,5.72-4.34,1.91-1.43,3.9-2.76,5.85-4.14l5.97-3.96,6.06-3.81,6.54-3.91,1.58-1.01c.53-.34.57-1.1.08-1.49l-3.02-2.42c-.55-.44-.43-1.3.22-1.57l7.47-3.13c.24-.1.43-.3.51-.55l4.3-11.72.39-1.12c.15-.43,0-.71-.44-1.12l-1.58-1.27c-1.03-.71-.64-1.43.13-1.69,9.45-3.2,14.26-4.98,27.17-8.61l-8.79,1.39c-.73.13-1.3-.62-.99-1.29,1.1-2.38,2.41-5.22,3.42-7.3,1.71-3.54,3.45-7.06,5.22-10.57,1.76-3.51,3.53-7.03,5.34-10.51.91-1.74,1.8-3.49,2.73-5.22l2.78-5.2c1.89-3.43,3.72-6.91,5.67-10.32.97-1.71,1.91-3.43,2.91-5.12l2.97-5.08,3.06-5.02c1.01-1.68,4.32-7.21,5.39-8.86,1.07-1.64.59-2-.57-.41-1.14,1.6-4.53,7.08-5.62,8.71l-3.29,4.89-3.2,4.95c-1.08,1.64-2.1,3.33-3.14,4.99-2.1,3.33-4.11,6.71-6.12,10.09l-2.95,5.12c-.99,1.7-1.94,3.43-2.91,5.14-1.94,3.43-3.83,6.89-5.7,10.36-1.86,3.48-3.69,6.97-5.49,10.48-1.81,3.51-3.58,7.03-5.31,10.6l-.11.25c-10.72,2.07-10.73,1.99-21.43,4.15l-3.54.71c-.85.17-1.01,1.31-.25,1.71l3.22,1.7,5.57,2.93c.4.21.59.69.44,1.12l-2.72,7.69c-.09.24-.27.44-.51.54l-10.59,4.48-2.08.88c-.64.27-.76,1.14-.21,1.57l1.78,1.4,2.27,1.79c.51.4.45,1.19-.11,1.52l-2.65,1.53-6.14,3.91c-2.01,1.38-4.02,2.73-6.01,4.13-1.96,1.45-3.96,2.83-5.89,4.32-1.93,1.49-3.88,2.95-5.75,4.52l-2.83,2.32-2.77,2.4c-1.86,1.58-3.61,3.3-5.41,4.96-1.73,1.73-3.52,3.4-5.2,5.2-1.71,1.75-3.36,3.58-4.99,5.41-1.61,1.86-3.21,3.72-4.72,5.67-1.54,1.92-3,3.91-4.43,5.91-1.43,2.01-2.8,4.07-4.11,6.15-1.31,2.1-2.54,4.24-3.71,6.42-1.18,2.17-2.25,4.41-3.27,6.66-.95,2.16-1.83,4.35-2.61,6.58-6.8,1.99-13.4,4.49-19.6,7.62-1.12.57-.81,2.26.44,2.39Z"/>
      <path class="cls-1" d="m3.68,242.27l10.16,1.11c.17.02.34,0,.49-.06,3.36-1.28,42.55-15.67,106.61-13.98.49.01.56-.7.08-.77-18.56-2.78-77-9.24-117.72,11.67-.95.49-.69,1.91.37,2.03Z"/>
      <path class="cls-1" d="m147.36,170.98c.02.28.25.5.52.51.29.02.52-.19.56-.47.02-.11.38-9.52,4.87-14.02.76-.77,1.49-1.06,2.23-.89,3.51.78,8.43,9.33,11.44,17.72,1.27,3.54,3.65,4.76,5.8,4.76.61,0,1.19-.1,1.73-.26,3.15-.98,5.73-4.57,4.59-8.89-2.35-8.87-10.94-30.99-39.95-44.77-.2-.1-.45-.06-.61.1-.16.16-.21.4-.11.61.07.15,6.93,15.58,8.94,45.61Z"/>
      <path class="cls-1" d="m110.53,125.25c.08.31.4.5.72.43l22.7-5.07c3.92-.89,7.86,1.13,9.75,2.1l17.62,9.03c.09.05.18.07.28.07.21,0,.42-.11.53-.31.16-.29.06-.65-.22-.81l-23.16-13.9c-.86-.52-1.91-.64-2.87-.33l-24.96,8.06c-.31.1-.48.42-.4.74Z"/>
      <path class="cls-1" d="m141.52,98.43l-12.27,4.41,10.35-1.74c.69-.13,1.31.47,1.2,1.16l-.73,11.51c-.13.8.68,1.42,1.41,1.1l11.07-4.16c.59-.26,1.27.09,1.4.72l6.51,12.21c.06.11.22.07.22-.05l.09-9.11c.13-1.16,2.69-.85,3.18-.93.91-.14,1.18-1.31.43-1.84l-22.05-13.13c-.24-.17-.54-.23-.82-.16Z"/>
      <path class="cls-1" d="m161.92,102.62c6.23-52.9,15.54-75.41,14.32-76.57-.54-.51-17.99,55.07-20.53,70.9-.17,1.05-1.19,1.73-2.22,1.47l-5.83-1.5c-.08-.02-.13.09-.05.13l11.61,6.91c1.12.67,2.55-.04,2.71-1.34Z"/>
      <path class="cls-1" d="m171.92,9.55c6.04.41,6.96.8,3.07,5.26,4.98-3.06,4.77-.1,3.93,6.14,1.7-6.24,2.7-9.2,6.44-6.19-2.07-4.43-.99-4.83,5.22-5.3-6.04-.41-6.95-.8-3.07-5.26-4.98,3.06-5.17,2.04-4.33-4.19-1.7,6.24-2.3,7.26-6.05,4.25,2.07,4.43,1,4.83-5.22,5.3Z"/>
    </g>
  </g>
</svg>