<?xml version="1.0" encoding="UTF-8"?>
<svg id="Livello_2" data-name="Livello 2" xmlns="http://www.w3.org/2000/svg" viewBox="0 0 554.93 203.3">
  <defs>
    <style>
      .cls-1 {
        fill: #1d1d1b;
      }
    </style>
  </defs>
  <g id="Livello_1-2" data-name="Livello 1">
    <g>
      <g>
        <path class="cls-1" d="m201.81,62.25c-4.19-10.51-11.13-18.66-20.98-24.29-6.52-3.73-13.55-5.79-21.02-6.17-7.54-.38-14.69,1.19-21.46,4.6-8.1,4.08-14.31,10.1-18.6,18.03-3.34,6.18-5.17,12.8-5.12,19.9.06,7.5,0,15.01,0,22.51,0,1.05.06,2.11.21,3.15.38,2.48,2.52,4.27,5.09,4.35,2.99.09,5.29-1.45,5.8-4.05.26-1.34.36-2.72.37-4.09.04-7.38.06-14.75.01-22.13-.04-6.24,1.69-12,5.29-16.99,6.68-9.23,15.68-14.23,27.31-13.73,8.24.35,15.63,3.33,21.8,8.9,9.32,8.4,13.71,21.09,11.74,33.48-1.58,9.94-6.86,17.86-15.35,23.73-5.67,3.92-12.13,5.89-18.97,6.15-6.76.25-13.54.06-20.31.06,0,.03,0,.06,0,.09-5.27,0-10.54.02-15.81,0-4.08-.02-8.12.27-12.02,1.5-9.35,2.95-16.58,8.59-21.41,17.17-2.68,4.76-4.46,9.85-4.56,15.35-.13,6.89-.09,13.78,0,20.68.02,1.85.26,3.69.8,5.46,1.3,4.31,3.88,7.78,7.39,10.6,1.27,1.02,2.63,1.86,4.05,2.52-10.82.47-21.42,1.03-31.29,1.61,0,0,.02-.01.02-.02,1.64-2.38,2.48-5.01,2.91-7.78.6-4.15-.6-8.28-.39-12.47.07-6.83.52-13.68.44-20.53,0-.41-.61-.49-.72-.11-2.05,6.63-4.13,13.28-5.29,20.13-.49,3.43-1.52,7.08-1.45,10.57.25,3.69,1.47,7.32,3.84,10.24-6.7.4-13.06.82-18.91,1.24.82-1.61,1.28-3.2,1.62-4.78,1.15-4.9-.09-9.85.18-14.81.2-6.65.84-13.39.99-20.08.02-.33-.47-.39-.55-.09-1.81,6.54-3.69,13.05-4.73,19.77-.52,4-1.77,8.83-.94,12.84.51,2.52,1.12,4.96,2.59,7.21-6.57.48-12.47.96-17.48,1.42.24-.66.43-1.32.58-1.98,1.39-5.29.28-10.67.65-16.04.33-6.13,1.15-12.31,1.58-18.46.02-.23-.33-.28-.38-.06-.81,3-1.52,6.02-2.28,9.03-.75,3.01-1.41,6.11-1.86,9.2-.42,3.14-1.02,6.26-.98,9.45.21,3,.72,6.2,2.06,8.91-1.46.14-2.84.27-4.13.4-5.96.61-13.04,2.04-13.04-4.21l4.04-30.87c.05-.39-.47-.56-.66-.21-4.52,8.52-23.67,46.66-3.2,44.67,63.71-6.2,168.16-15.93,168.16-15.93,0,0-10.11-.79-62.27.97-.11,0-.21,0-.32.01,1.33-.74,2.59-1.64,3.74-2.69,4.51-4.12,7.12-9.19,7.14-15.42,0-2.91.08-5.81.08-8.72,0-5.84-.02-11.68-.06-17.52-.01-1.45-.28-2.87-1.29-4.02-1.69-1.92-4.2-2.46-6.83-1.48-1.95.72-3.17,2.73-3.17,5.21,0,7.98,0,15.97-.02,23.95,0,2.58-.22,5.11-1.81,7.3-2,2.76-4.63,4.42-8.09,4.28-5.42-.22-9.61-4.83-9.65-10.25-.03-5.81-.02-11.62,0-17.43.03-5.99,2.06-11.27,5.96-15.77,4.43-5.11,10.02-8.16,16.83-8.62,3.63-.24,7.27-.17,10.91-.19,10.44-.07,20.88-.02,31.32-.2,5.57-.09,10.9-1.48,16.02-3.71,7.3-3.19,13.53-7.75,18.53-13.98,6.19-7.71,9.85-16.46,10.51-26.33.47-7.02-.56-13.88-3.18-20.45Z"/>
        <path class="cls-1" d="m5.8,137.27l5.73.63-.12.05.14-.05.27.03c.13.01.25,0,.37-.05,2.29-.87,27.17-9.95,67.76-8.88.31,0,.36-.45.05-.49-9.84-1.47-37.28-4.57-61.14,2.14.51-1.19,1.05-2.36,1.63-3.51.71-1.37,1.45-2.73,2.26-4.04.79-1.32,1.65-2.6,2.51-3.88.87-1.27,1.77-2.51,2.71-3.73.94-1.21,1.9-2.41,2.91-3.57.98-1.17,2.03-2.29,3.06-3.43,1.05-1.11,2.11-2.21,3.2-3.28,1.07-1.09,2.22-2.1,3.33-3.14,1.15-1,2.27-2.04,3.46-2.99l1.75-1.47,1.79-1.42c1.18-.96,2.42-1.84,3.63-2.76,1.22-.91,2.48-1.75,3.72-2.63l3.8-2.51,3.85-2.42,4.16-2.48,1.01-.64c.34-.22.36-.7.05-.95l-1.92-1.54c-.35-.28-.27-.82.14-1l4.75-1.99c.15-.06.27-.19.33-.35l2.74-7.45.25-.71c.1-.27,0-.45-.28-.71l-1-.81c-.66-.45-.41-.91.08-1.07,6.01-2.03,9.07-3.17,17.28-5.48l-5.59.88c-.46.08-.83-.39-.63-.82.7-1.51,1.53-3.32,2.17-4.64,1.09-2.25,2.2-4.49,3.32-6.72,1.12-2.23,2.24-4.47,3.4-6.68.58-1.1,1.14-2.22,1.74-3.32l1.76-3.3c1.2-2.18,2.37-4.4,3.61-6.56.62-1.09,1.21-2.18,1.85-3.25l1.89-3.23,1.95-3.19c.64-1.07,2.75-4.58,3.43-5.63.68-1.04.37-1.27-.36-.26-.73,1.01-2.88,4.5-3.57,5.54l-2.09,3.11-2.03,3.15c-.69,1.05-1.33,2.12-2,3.17-1.33,2.12-2.61,4.27-3.89,6.42l-1.88,3.25c-.63,1.08-1.23,2.18-1.85,3.27-1.23,2.18-2.43,4.38-3.62,6.59-1.18,2.21-2.34,4.43-3.49,6.67-1.15,2.23-2.27,4.47-3.38,6.74l-.07.16c-6.81,1.32-6.82,1.27-13.62,2.64l-2.25.45c-.54.11-.64.83-.16,1.09l2.05,1.08,3.54,1.87c.26.14.38.44.28.71l-1.73,4.89c-.05.15-.17.28-.32.34l-6.73,2.85-1.32.56c-.41.17-.48.72-.13,1l1.13.89,1.45,1.14c.32.26.29.76-.07.96l-1.68.97-3.91,2.48c-1.28.87-2.56,1.74-3.82,2.63-1.25.92-2.52,1.8-3.74,2.75-1.23.95-2.47,1.88-3.66,2.88l-1.8,1.47-1.76,1.53c-1.18,1.01-2.29,2.1-3.44,3.15-1.1,1.1-2.24,2.16-3.3,3.31-1.09,1.11-2.13,2.27-3.18,3.44-1.02,1.18-2.04,2.37-3,3.61-.98,1.22-1.91,2.48-2.82,3.76-.91,1.28-1.78,2.59-2.62,3.91-.83,1.33-1.62,2.7-2.36,4.08-.75,1.38-1.43,2.8-2.08,4.24-.6,1.37-1.16,2.77-1.66,4.18-4.32,1.26-8.52,2.86-12.46,4.85-.71.36-.51,1.44.28,1.52Z"/>
        <path class="cls-1" d="m2.34,154.04l6.46.71c.11.01.21,0,.31-.04,2.14-.82,27.05-9.96,67.79-8.89.31,0,.36-.45.05-.49-11.8-1.77-48.96-5.88-74.85,7.42-.6.31-.44,1.22.24,1.29Z"/>
        <path class="cls-1" d="m93.69,108.72c.01.18.16.32.33.32.18.01.33-.12.35-.3,0-.07.24-6.05,3.1-8.92.48-.49.95-.67,1.42-.57,2.23.5,5.36,5.93,7.27,11.27.81,2.25,2.32,3.02,3.69,3.02.38,0,.76-.06,1.1-.17,2.01-.62,3.65-2.91,2.92-5.65-1.49-5.64-6.96-19.7-25.4-28.46-.13-.06-.29-.04-.39.07-.1.1-.13.26-.07.39.04.1,4.41,9.91,5.68,29Z"/>
        <path class="cls-1" d="m70.28,79.64c.05.2.26.32.46.27l14.44-3.22c2.49-.57,5,.72,6.2,1.33l11.21,5.74c.06.03.12.04.18.04.14,0,.27-.07.34-.2.1-.18.04-.41-.14-.52l-14.72-8.84c-.55-.33-1.21-.41-1.82-.21l-15.87,5.12c-.2.06-.31.27-.25.47Z"/>
        <path class="cls-1" d="m89.99,62.58l-7.8,2.8,6.58-1.1c.44-.08.83.3.76.74l-.46,7.32c-.08.51.43.9.9.7l7.04-2.64c.38-.16.81.06.89.46l4.14,7.76c.04.07.14.04.14-.03l.06-5.79c.09-.74,1.71-.54,2.03-.59.58-.09.75-.84.28-1.17l-14.02-8.35c-.15-.11-.34-.14-.52-.1Z"/>
        <path class="cls-1" d="m102.96,65.25c3.96-33.64,9.88-47.95,9.11-48.69-.34-.32-11.44,35.01-13.06,45.08-.11.67-.76,1.1-1.41.93l-3.7-.96c-.05-.01-.08.06-.03.08l7.38,4.4c.71.42,1.62-.03,1.72-.85Z"/>
        <path class="cls-1" d="m109.31,6.07c3.84.26,4.42.51,1.95,3.34,3.17-1.94,3.03-.06,2.5,3.9,1.08-3.97,1.71-5.85,4.1-3.94-1.32-2.82-.63-3.07,3.32-3.37-3.84-.26-4.42-.51-1.95-3.34-3.17,1.94-3.29,1.3-2.75-2.67-1.08,3.97-1.46,4.61-3.84,2.7,1.32,2.82.63,3.07-3.32,3.37Z"/>
      </g>
      <g>
        <path class="cls-1" d="m280.14,124.98c.98,0,1.52.54,1.52,1.52,0,1.08-.54,1.61-1.52,1.61h-20.87v58.22c0,1.17-.63,1.79-1.79,1.79s-1.79-.63-1.79-1.79v-58.22h-20.78c-1.08,0-1.61-.54-1.61-1.61,0-.99.54-1.52,1.61-1.52h45.23Z"/>
        <path class="cls-1" d="m275.56,165.11c0-6.63,2.24-12.18,6.81-16.75,4.57-4.57,10.21-6.9,16.84-6.9s12.18,2.24,16.66,6.81c4.57,4.48,6.81,10.03,6.81,16.66s-2.33,12.27-6.9,16.84-10.12,6.81-16.75,6.81-12.18-2.24-16.75-6.72c-4.48-4.57-6.72-10.12-6.72-16.75Zm3.58-.09c0,5.82,1.88,10.66,5.73,14.51,3.85,3.85,8.6,5.73,14.24,5.73s10.39-1.88,14.24-5.73,5.73-8.69,5.73-14.51-1.88-10.57-5.73-14.42c-3.85-3.85-8.6-5.82-14.24-5.82s-10.39,1.97-14.24,5.82c-3.85,3.85-5.73,8.6-5.73,14.42Z"/>
        <path class="cls-1" d="m331.18,143.52c0-1.08.54-1.61,1.61-1.61s1.61.54,1.61,1.61l.36,9.76c3.22-7.43,9.85-11.82,18-11.82,1.34,0,1.97.54,1.97,1.7s-.63,1.79-1.97,1.79c-11.38,0-18,7.61-18,22.03v19.35c0,1.17-.63,1.79-1.79,1.79s-1.79-.63-1.79-1.79v-42.81Z"/>
        <path class="cls-1" d="m364.69,131.25c-2.6,2.96-7.34-1.79-4.39-4.39,2.96-2.96,7.34,1.43,4.39,4.39Zm-.27,55c0,1.25-.63,1.88-1.88,1.88s-1.88-.63-1.88-1.88v-42.54c0-1.16.63-1.79,1.88-1.79s1.88.63,1.88,1.79v42.54Z"/>
        <path class="cls-1" d="m410.39,147.02c3.49,3.67,5.2,9.05,5.2,16.12v23.2c0,1.17-.63,1.79-1.79,1.79s-1.79-.63-1.79-1.79v-22.03c0-13.17-6.45-19.53-15.05-19.53-10.03,0-17.2,6.72-17.2,21.32v20.24c0,1.17-.63,1.79-1.79,1.79s-1.79-.63-1.79-1.79v-42.81c0-1.08.54-1.61,1.61-1.61s1.61.54,1.61,1.61l.36,8.51c3.4-7.08,9.32-10.57,17.74-10.57,5.11,0,9.4,1.88,12.9,5.55Z"/>
        <path class="cls-1" d="m423.26,165.11c0-6.63,2.24-12.18,6.81-16.75s10.21-6.9,16.84-6.9,12.18,2.24,16.66,6.81c4.57,4.48,6.81,10.03,6.81,16.66s-2.33,12.27-6.9,16.84c-4.57,4.57-10.12,6.81-16.75,6.81s-12.18-2.24-16.75-6.72c-4.48-4.57-6.72-10.12-6.72-16.75Zm3.58-.09c0,5.82,1.88,10.66,5.73,14.51s8.6,5.73,14.24,5.73,10.39-1.88,14.24-5.73,5.73-8.69,5.73-14.51-1.88-10.57-5.73-14.42c-3.85-3.85-8.6-5.82-14.24-5.82s-10.39,1.97-14.24,5.82c-3.85,3.85-5.73,8.6-5.73,14.42Z"/>
      </g>
      <g>
        <path class="cls-1" d="m263.22,28.42c7.37,0,13.3,2.15,17.91,6.35,4.61,4.2,6.86,9.62,6.86,16.17s-2.35,11.97-7.06,16.37c-4.61,4.3-10.64,6.45-18.01,6.45h-20.67v22.82c.41,5.22-8.39,5.22-7.98,0V32.31c0-2.35,1.64-3.89,3.99-3.89h24.97Zm-.92,38.58c5.22,0,9.52-1.54,12.79-4.5,3.27-2.97,4.91-6.75,4.91-11.36s-1.64-8.39-4.91-11.36-7.57-4.5-12.79-4.5h-20.06v31.73h20.06Z"/>
        <path class="cls-1" d="m294.78,109.68c.72,0,3.17.82,5.63.82,5.32,0,9.52-3.58,12.69-10.75l-20.06-46.16c-.41-1.13-.61-1.84-.61-2.35,0-2.35,1.64-3.89,4.09-3.89,1.64,0,2.87,1.02,3.68,3.07l16.89,40.94,16.99-40.94c.72-2.05,2.05-3.07,3.79-3.07,2.15,0,3.79,1.64,3.79,3.68,0,.61-.21,1.33-.61,2.15l-20.57,47.38c-4.91,11.26-11.56,16.89-19.96,16.89-2.56,0-4.61-.41-6.24-1.12-1.94-.72-2.87-1.84-2.87-3.38,0-1.94,1.43-3.27,3.38-3.27Z"/>
        <path class="cls-1" d="m347.24,47.87h8.19v-10.03c-.51-5.02,8.29-4.91,7.67,0v10.03h17.91c1.74,0,3.07,1.23,3.07,3.17,0,1.74-1.33,3.07-3.07,3.07h-17.91v29.17c0,7.06,3.58,10.75,9.62,10.75,1.74,0,3.48-.21,5.12-.51,1.74-.31,2.56-.51,2.66-.51,2.05,0,3.38,1.23,3.38,3.17,0,1.74-.92,2.87-2.87,3.58-2.56.92-5.73,1.33-9.62,1.33-9.93,0-15.96-5.83-15.96-16.48v-30.5h-8.19c-1.74,0-3.07-1.33-3.07-3.07,0-1.94,1.33-3.17,3.07-3.17Z"/>
        <path class="cls-1" d="m431.16,52.98c3.89,4.09,5.83,9.93,5.83,17.6v26.1c.51,5.12-8.29,5.12-7.67,0v-23.54c0-12.79-6.35-19.14-14.94-19.14-9.72,0-16.68,6.35-16.78,19.55v23.13c.61,5.12-8.19,5.12-7.68,0V31.7c0-2.35,1.54-3.79,3.89-3.79,2.15,0,3.79,1.64,3.79,3.79v25.99c3.89-7.27,10.23-10.85,19.04-10.85,5.83,0,10.64,2.05,14.53,6.14Z"/>
        <path class="cls-1" d="m444.47,74.17c0-7.67,2.66-14.12,7.98-19.34,5.32-5.32,11.87-7.98,19.65-7.98s14.23,2.56,19.44,7.78,7.88,11.56,7.88,19.24-2.66,14.12-7.98,19.34c-5.32,5.22-11.87,7.88-19.65,7.88s-14.33-2.56-19.55-7.68c-5.22-5.22-7.78-11.56-7.78-19.24Zm13.3-14.43c-3.79,3.79-5.63,8.6-5.63,14.23s1.94,10.44,5.73,14.33c3.79,3.79,8.49,5.73,14.12,5.73s10.23-1.94,14.02-5.73c3.79-3.89,5.73-8.7,5.73-14.33s-1.94-10.44-5.73-14.23-8.39-5.73-14.02-5.73-10.44,1.95-14.23,5.73Z"/>
        <path class="cls-1" d="m549.08,52.98c3.89,4.09,5.83,9.93,5.83,17.6v26.1c.51,5.12-8.29,5.12-7.67,0v-23.54c0-12.79-6.35-19.14-14.94-19.14-9.82,0-16.78,6.45-16.78,20.67v22c.61,5.12-8.19,5.12-7.68,0v-45.75c0-2.05,1.43-3.58,3.58-3.58s3.48,1.54,3.48,3.58l.2,7.37c3.79-7.68,10.34-11.46,19.45-11.46,5.83,0,10.75,2.05,14.53,6.14Z"/>
      </g>
    </g>
  </g>
</svg>